<svg width="338" height="340" viewBox="0 0 338 340" fill="none" xmlns="http://www.w3.org/2000/svg">
<path d="M70.9287 198.143C110.101 198.143 141.857 229.899 141.857 269.071C141.857 308.244 110.101 340 70.9287 340C31.756 340 0 308.244 0 269.071C0.000131944 229.899 31.756 198.143 70.9287 198.143ZM115.407 83.9014C139.758 83.9014 159.498 103.642 159.498 127.992C159.498 152.343 139.758 172.083 115.407 172.083C91.0567 172.083 71.3165 152.343 71.3164 127.992C71.3164 103.642 91.0566 83.9014 115.407 83.9014ZM188.173 16.7803C204.054 16.7803 216.928 29.6544 216.928 45.5352C216.928 61.416 204.054 74.29 188.173 74.29C172.292 74.2898 159.418 61.4159 159.418 45.5352C159.418 29.6546 172.292 16.7805 188.173 16.7803ZM327.565 36.3594C333.162 36.3594 337.699 40.896 337.699 46.4922C337.699 52.0885 333.162 56.625 327.565 56.625C321.969 56.6247 317.433 52.0883 317.433 46.4922C317.433 40.8961 321.969 36.3596 327.565 36.3594ZM264.766 0C274.294 0.000112357 282.018 7.72446 282.019 17.2529C282.019 26.7815 274.294 34.5057 264.766 34.5059C255.237 34.5059 247.513 26.7815 247.513 17.2529C247.513 7.72439 255.237 0 264.766 0Z" fill="#DEDCC3"/>
</svg>
