<svg width="2694" height="712" viewBox="0 0 2694 712" fill="none" xmlns="http://www.w3.org/2000/svg">
<path d="M103.472 396.861C160.618 396.861 206.944 443.188 206.944 500.334C206.944 557.48 160.618 603.806 103.472 603.806C46.3258 603.805 0.000206189 557.48 0 500.334C0 443.188 46.3257 396.861 103.472 396.861ZM168.357 230.203C203.881 230.203 232.678 259 232.678 294.523C232.678 330.047 203.881 358.844 168.357 358.844C132.834 358.844 104.037 330.047 104.037 294.523C104.037 259 132.834 230.203 168.357 230.203ZM274.511 132.285C297.678 132.285 316.459 151.066 316.459 174.233C316.459 197.401 297.678 216.182 274.511 216.183C251.343 216.183 232.562 197.401 232.562 174.233C232.563 151.066 251.343 132.285 274.511 132.285ZM477.86 160.848C486.024 160.848 492.643 167.466 492.643 175.63C492.642 183.794 486.024 190.412 477.86 190.412C469.696 190.412 463.078 183.794 463.078 175.63C463.078 167.466 469.696 160.848 477.86 160.848ZM386.248 107.806C400.148 107.806 411.417 119.074 411.417 132.975C411.417 146.875 400.148 158.144 386.248 158.144C372.347 158.144 361.078 146.875 361.078 132.975C361.078 119.074 372.348 107.806 386.248 107.806Z" fill="white"/>
<path d="M1623.14 711.492C1552.31 711.492 1503.06 681.001 1502.59 626.118H1587.49C1588.9 645.82 1601.1 657.547 1623.61 657.547C1640.97 657.547 1654.1 651.449 1654.1 636.907C1654.1 617.205 1626.43 614.86 1595.47 610.169C1555.13 604.071 1508.69 593.282 1508.69 533.238C1508.69 483.984 1558.88 456.777 1617.52 456.777C1690.22 456.777 1728.22 483.984 1731.5 530.893H1648.01C1645.66 513.068 1632.53 509.315 1617.98 509.315C1604.85 509.315 1592.65 514.475 1592.65 526.671C1592.65 540.275 1614.7 543.089 1641.91 546.842C1685.53 552.94 1740.89 562.791 1740.89 629.402C1740.89 686.63 1688.82 711.492 1623.14 711.492Z" fill="white"/>
<path d="M1111.69 703.518V464.282H1196.12V499.933H1197.53C1214.42 472.257 1237.4 456.777 1273.52 456.777C1305.42 456.777 1329.34 472.257 1341.54 498.526H1342.95C1363.59 466.628 1390.33 456.777 1421.29 456.777C1479.92 456.777 1505.25 498.057 1505.25 552.94V703.518H1416.6V569.358C1416.6 544.966 1408.62 529.017 1386.1 529.017C1364.06 529.017 1352.8 548.718 1352.8 574.518V703.518H1264.14V569.358C1264.14 544.966 1256.17 529.017 1233.65 529.017C1211.6 529.017 1200.35 548.718 1200.35 574.518V703.518H1111.69Z" fill="white"/>
<path d="M1007.68 703.518V368.119H1098.68V703.518H1007.68Z" fill="white"/>
<path d="M905.967 703.518V464.282H994.625V703.518H905.967ZM905.967 435.199V368.119H994.625V435.199H905.967Z" fill="white"/>
<path d="M642.643 703.518V368.119H901.111V450.679H740.682V505.562H873.434V581.554H740.682V703.518H642.643Z" fill="white"/>
<path d="M2567.23 342.085C2488.9 342.085 2436.36 288.609 2436.36 215.431C2436.36 143.191 2488.43 88.3077 2563.95 88.3077C2601.48 88.3077 2630.09 100.504 2652.14 120.675C2681.22 147.413 2694.83 190.1 2693.89 237.478H2523.14C2528.3 265.154 2543.31 282.041 2570.05 282.041C2585.53 282.041 2596.79 275.943 2603.35 264.216H2689.2C2684.04 285.794 2667.15 306.903 2643.69 321.914C2621.65 335.987 2597.72 342.085 2567.23 342.085ZM2565.83 147.882C2541.43 147.882 2527.83 164.3 2523.14 190.569H2605.7C2601.95 163.831 2586.93 147.882 2565.83 147.882Z" fill="white"/>
<path d="M2275.88 335.518L2193.79 96.2822H2285.73L2312.94 188.224C2319.97 212.616 2328.42 245.922 2328.42 245.922H2329.35C2329.35 245.922 2338.27 212.616 2345.3 188.224L2372.51 96.2822H2461.64L2379.55 335.518H2275.88Z" fill="white"/>
<path d="M2111.3 335.518V96.2822H2199.96V335.518H2111.3ZM2111.3 67.1987V0.119019H2199.96V67.1987H2111.3Z" fill="white"/>
<path d="M1788.43 335.518V0.119019H1943.23C2039.86 0.119019 2106.94 62.0388 2106.94 168.522C2106.94 275.474 2043.14 335.518 1939.01 335.518H1788.43ZM1886.47 254.365H1931.03C1976.06 254.365 2007.49 225.282 2007.49 168.522C2007.49 113.169 1977.94 81.2714 1931.03 81.2714H1886.47V254.365Z" fill="white"/>
<path d="M1467.63 414.794V96.2822H1552.06V124.428H1553.47C1570.83 101.911 1595.22 88.7768 1628.06 88.7768C1692.32 88.7768 1729.38 146.006 1729.38 215.431C1729.38 293.769 1688.1 343.492 1624.3 343.492C1595.69 343.492 1573.64 332.703 1557.69 313.001H1556.28V414.794H1467.63ZM1598.03 278.289C1624.3 278.289 1639.31 255.772 1639.31 219.184C1639.31 182.595 1624.3 159.609 1598.03 159.609C1570.83 159.609 1553 184.94 1553 219.184C1553 253.896 1570.83 278.289 1598.03 278.289Z" fill="white"/>
<path d="M1337.6 342.085C1259.26 342.085 1206.72 288.609 1206.72 215.431C1206.72 143.191 1258.79 88.3077 1334.31 88.3077C1371.84 88.3077 1400.46 100.504 1422.5 120.675C1451.59 147.413 1465.19 190.1 1464.25 237.478H1293.5C1298.66 265.154 1313.67 282.041 1340.41 282.041C1355.89 282.041 1367.15 275.943 1373.72 264.216H1459.56C1454.4 285.794 1437.51 306.903 1414.06 321.914C1392.01 335.987 1368.09 342.085 1337.6 342.085ZM1336.19 147.882C1311.8 147.882 1298.19 164.3 1293.5 190.569H1376.06C1372.31 163.831 1357.3 147.882 1336.19 147.882Z" fill="white"/>
<path d="M1086.54 342.085C1008.21 342.085 955.668 288.609 955.668 215.431C955.668 143.191 1007.74 88.3077 1083.26 88.3077C1120.79 88.3077 1149.4 100.504 1171.45 120.675C1200.53 147.413 1214.14 190.1 1213.2 237.478H1042.45C1047.61 265.154 1062.62 282.041 1089.36 282.041C1104.84 282.041 1116.1 275.943 1122.66 264.216H1208.51C1203.35 285.794 1186.46 306.903 1163.01 321.914C1140.96 335.987 1117.03 342.085 1086.54 342.085ZM1085.14 147.882C1060.74 147.882 1047.14 164.3 1042.45 190.569H1125.01C1121.26 163.831 1106.25 147.882 1085.14 147.882Z" fill="white"/>
<path d="M642.643 335.518V0.119019H797.442C894.074 0.119019 961.154 62.0388 961.154 168.522C961.154 275.474 897.358 335.518 793.22 335.518H642.643ZM740.682 254.365H785.246C830.278 254.365 861.707 225.282 861.707 168.522C861.707 113.169 832.154 81.2714 785.246 81.2714H740.682V254.365Z" fill="white"/>
</svg>
