<svg width="2020" height="412" viewBox="0 0 2020 412" fill="none" xmlns="http://www.w3.org/2000/svg">
<path d="M1894.51 336.499C1817.42 336.499 1765.72 283.877 1765.72 211.87C1765.72 140.785 1816.96 86.7788 1891.28 86.7788C1928.2 86.7788 1956.36 98.7801 1978.06 118.628C2006.67 144.939 2020.06 186.944 2019.14 233.564H1851.12C1856.2 260.798 1870.97 277.415 1897.28 277.415C1912.51 277.415 1923.59 271.415 1930.05 259.875H2014.52C2009.44 281.108 1992.83 301.879 1969.75 316.65C1948.05 330.498 1924.51 336.499 1894.51 336.499ZM1893.12 145.401C1869.12 145.401 1855.73 161.556 1851.12 187.405H1932.36C1928.67 161.095 1913.89 145.401 1893.12 145.401Z" fill="#DEDCC3"/>
<path d="M1607.81 330.037L1527.03 94.626H1617.5L1644.28 185.098C1651.2 209.1 1659.51 241.873 1659.51 241.873H1660.43C1660.43 241.873 1669.2 209.1 1676.13 185.098L1702.9 94.626H1790.6L1709.82 330.037H1607.81Z" fill="#DEDCC3"/>
<path d="M1445.87 330.036V94.6258H1533.11V330.036H1445.87ZM1445.87 66.0073V0H1533.11V66.0073H1445.87Z" fill="#DEDCC3"/>
<path d="M1128.15 330.036V0H1280.48C1375.56 0 1441.57 60.9298 1441.57 165.711C1441.57 270.953 1378.8 330.036 1276.32 330.036H1128.15ZM1224.62 250.181H1268.48C1312.79 250.181 1343.71 221.563 1343.71 165.711C1343.71 111.243 1314.63 79.8549 1268.48 79.8549H1224.62V250.181Z" fill="#DEDCC3"/>
<path d="M812.48 408.045V94.6257H895.567V122.321H896.951C914.03 100.165 938.033 87.2402 970.344 87.2402C1033.58 87.2402 1070.05 143.554 1070.05 211.869C1070.05 288.955 1029.43 337.883 966.651 337.883C938.494 337.883 916.8 327.267 901.106 307.88H899.721V408.045H812.48ZM940.802 273.722C966.651 273.722 981.422 251.566 981.422 215.562C981.422 179.558 966.651 156.94 940.802 156.94C914.03 156.94 896.49 181.866 896.49 215.562C896.49 249.72 914.03 273.722 940.802 273.722Z" fill="#DEDCC3"/>
<path d="M684.531 336.499C607.446 336.499 555.748 283.877 555.748 211.87C555.748 140.785 606.984 86.7788 681.3 86.7788C718.227 86.7788 746.384 98.7801 768.079 118.628C796.698 144.939 810.084 186.944 809.161 233.564H641.142C646.22 260.798 660.99 277.415 687.301 277.415C702.533 277.415 713.612 271.415 720.074 259.875H804.545C799.467 281.108 782.85 301.879 759.77 316.65C738.076 330.498 714.535 336.499 684.531 336.499ZM683.147 145.401C659.144 145.401 645.758 161.556 641.142 187.405H722.382C718.689 161.095 703.918 145.401 683.147 145.401Z" fill="#DEDCC3"/>
<path d="M437.489 336.499C360.403 336.499 308.705 283.877 308.705 211.87C308.705 140.785 359.941 86.7788 434.257 86.7788C471.185 86.7788 499.341 98.7801 521.036 118.628C549.655 144.939 563.041 186.944 562.118 233.564H394.099C399.177 260.798 413.947 277.415 440.258 277.415C455.49 277.415 466.569 271.415 473.031 259.875H557.502C552.424 281.108 535.807 301.879 512.728 316.65C491.033 330.498 467.492 336.499 437.489 336.499ZM436.104 145.401C412.101 145.401 398.715 161.556 394.099 187.405H475.339C471.646 161.095 456.875 145.401 436.104 145.401Z" fill="#DEDCC3"/>
<path d="M0.685547 330.036V0H153.01C248.097 0 314.105 60.9298 314.105 165.711C314.105 270.953 251.329 330.036 148.856 330.036H0.685547ZM97.1577 250.181H141.009C185.321 250.181 216.248 221.563 216.248 165.711C216.248 111.243 187.168 79.8549 141.009 79.8549H97.1577V250.181Z" fill="#DEDCC3"/>
</svg>
